<svg width="297" height="66" viewBox="0 0 297 66" fill="none" xmlns="http://www.w3.org/2000/svg">
<path d="M6.56158 10.03V10.9209H4.01612V17.03H3.12521V10.9209H0.707031V10.03H6.56158Z" fill="white"/>
<path d="M11.9077 9.90269C12.9259 9.90269 13.6895 10.2845 14.4532 10.9209C15.2168 11.6845 15.4713 12.4481 15.4713 13.4663C15.4713 14.4845 15.0895 15.3754 14.4532 16.0118C13.6895 16.7754 12.9259 17.03 11.9077 17.03C10.635 17.03 9.74407 16.5209 9.10771 15.5027V19.7027H8.2168V10.03H9.10771V11.43C9.74407 10.4118 10.7623 9.90269 11.9077 9.90269ZM9.87134 15.5027C10.3804 16.0118 11.0168 16.2663 11.7804 16.2663C12.5441 16.2663 13.1804 16.0118 13.6895 15.5027C14.1986 14.9936 14.4532 14.3572 14.4532 13.5936C14.4532 12.83 14.1986 12.1936 13.6895 11.6845C13.3077 11.0481 12.6713 10.7936 11.9077 10.7936C11.1441 10.7936 10.5077 11.0481 9.87134 11.5572C9.36225 12.0663 9.10771 12.7027 9.10771 13.4663C9.10771 14.3572 9.36225 14.9936 9.87134 15.5027Z" fill="white"/>
<path d="M20.8153 9.90269C21.8335 9.90269 22.7244 10.2845 23.3607 11.0481C23.9971 11.8118 24.3789 12.7027 24.3789 13.5936C24.3789 13.7209 24.3789 13.8481 24.3789 13.9754H18.2698C18.3971 14.7391 18.6516 15.2481 19.1607 15.63C19.6698 16.0118 20.3062 16.2663 21.0698 16.2663C21.5789 16.2663 22.088 16.1391 22.4698 15.8845C22.8516 15.63 23.1062 15.3754 23.3607 14.9936L24.1244 15.5027C23.8698 16.0118 23.3607 16.3936 22.8516 16.6481C22.3425 16.9027 21.7062 17.03 21.0698 17.03C19.9244 17.03 19.0335 16.6481 18.3971 16.0118C17.7607 15.3754 17.3789 14.4845 17.3789 13.3391C17.3789 12.3209 17.7607 11.43 18.3971 10.6663C18.9062 10.2845 19.7971 9.90269 20.8153 9.90269ZM20.8153 10.7936C20.0516 10.7936 19.5425 11.0481 19.0335 11.43C18.5244 11.8118 18.2698 12.4481 18.1425 13.0845H23.3607C23.2335 12.3209 22.9789 11.8118 22.4698 11.43C22.088 11.0481 21.4516 10.7936 20.8153 10.7936Z" fill="white"/>
<path d="M31.2527 10.03H32.1436V17.03H31.2527V13.9754H27.18V17.03H26.2891V10.03H27.18V13.0845H31.2527V10.03Z" fill="white"/>
<path d="M40.6703 10.03H41.5612V17.03H40.6703V15.63C40.0339 16.6481 39.143 17.1572 37.8703 17.1572C36.8521 17.1572 35.9612 16.7754 35.3248 16.139C34.5612 15.3754 34.3066 14.6118 34.3066 13.5936C34.3066 12.5754 34.6885 11.6845 35.3248 11.0481C36.0885 10.2845 36.8521 10.03 37.8703 10.03C39.143 10.03 40.0339 10.539 40.6703 11.5572V10.03ZM35.9612 15.5027C36.4703 16.0118 37.1066 16.2663 37.8703 16.2663C38.6339 16.2663 39.2703 16.0118 39.7794 15.5027C40.2885 14.9936 40.543 14.3572 40.543 13.5936C40.543 12.83 40.2885 12.1936 39.7794 11.6845C39.2703 11.1754 38.6339 10.9209 37.8703 10.9209C37.1066 10.9209 36.4703 11.1754 35.9612 11.6845C35.4521 12.1936 35.1976 12.83 35.1976 13.5936C35.1976 14.3572 35.4521 14.9936 35.9612 15.5027Z" fill="white"/>
<path d="M52.2525 17.03H51.1071L48.3071 13.7209V17.03H47.4162V13.7209L44.6162 17.03H43.4707L46.6525 13.339L43.7252 10.03H44.8707L47.5434 13.0845V10.03H48.3071V13.2118L50.9798 10.1572H52.1252L49.198 13.4663L52.2525 17.03Z" fill="white"/>
<path d="M56.8348 9.90269C57.853 9.90269 58.7439 10.2845 59.3803 11.0481C60.0166 11.8118 60.3984 12.7027 60.3984 13.5936C60.3984 13.7209 60.3984 13.8481 60.3984 13.9754H54.2893C54.4166 14.7391 54.6712 15.2481 55.1803 15.63C55.6893 16.0118 56.3257 16.2663 57.0893 16.2663C57.5984 16.2663 58.1075 16.1391 58.4893 15.8845C58.8712 15.63 59.1257 15.3754 59.3803 14.9936L60.1439 15.5027C59.8893 16.0118 59.3803 16.3936 58.8712 16.6481C58.3621 16.9027 57.7257 17.03 57.0893 17.03C55.9439 17.03 55.053 16.6481 54.4166 16.0118C53.7803 15.3754 53.3984 14.4845 53.3984 13.3391C53.3984 12.3209 53.7803 11.43 54.4166 10.6663C54.7984 10.2845 55.6893 9.90269 56.8348 9.90269ZM56.8348 10.7936C56.0712 10.7936 55.5621 11.0481 55.053 11.43C54.5439 11.8118 54.2893 12.4481 54.1621 13.0845H59.3803C59.253 12.3209 58.9984 11.8118 58.4893 11.43C57.9803 11.0481 57.4712 10.7936 56.8348 10.7936Z" fill="white"/>
<path d="M65.9976 9.90269C67.0157 9.90269 67.7794 10.2845 68.543 10.9209C69.3066 11.6845 69.5612 12.4481 69.5612 13.4663C69.5612 14.4845 69.1794 15.3754 68.543 16.0118C67.7794 16.7754 67.0157 17.03 65.9976 17.03C64.7248 17.03 63.8339 16.5209 63.1976 15.5027V19.7027H62.3066V10.03H63.1976V11.43C63.8339 10.4118 64.7248 9.90269 65.9976 9.90269ZM63.9612 15.5027C64.4703 16.0118 65.1066 16.2663 65.8703 16.2663C66.6339 16.2663 67.2703 16.0118 67.7794 15.5027C68.2885 14.9936 68.543 14.3572 68.543 13.5936C68.543 12.83 68.2885 12.1936 67.7794 11.6845C67.2703 11.1754 66.6339 10.9209 65.8703 10.9209C65.1066 10.9209 64.4703 11.1754 63.9612 11.6845C63.4521 12.1936 63.1976 12.83 63.1976 13.5936C63.1976 14.3572 63.4521 14.9936 63.9612 15.5027Z" fill="white"/>
<path d="M74.5246 12.7027C75.161 12.7027 75.6701 12.9572 76.1792 13.339C76.6882 13.7209 76.8155 14.23 76.8155 14.8663C76.8155 15.5027 76.561 16.0118 76.1792 16.3936C75.6701 16.7754 75.161 17.03 74.5246 17.03H71.7246V10.03H72.6155V12.7027H74.5246ZM74.5246 16.139C74.9064 16.139 75.2882 16.0118 75.5428 15.7572C75.7973 15.5027 75.9246 15.2481 75.9246 14.8663C75.9246 14.4845 75.7973 14.23 75.5428 13.9754C75.2882 13.7209 74.9064 13.5936 74.5246 13.5936H72.6155V16.139H74.5246ZM77.8337 10.03H78.7246V17.03H77.8337V10.03Z" fill="white"/>
<path d="M91.1979 16.139H92.2161V18.939H91.3252V17.03H85.5979V18.939H84.707V16.139H85.5979C86.107 15.5027 86.3616 14.6118 86.3616 13.4663V10.03H91.3252V16.139H91.1979ZM86.6161 16.139H90.307V10.9209H87.1252V13.4663C87.1252 14.6118 86.9979 15.5027 86.6161 16.139Z" fill="white"/>
<path d="M99.8522 10.03V17.03H98.9613V10.9209H95.7795V13.9754C95.7795 15.1209 95.525 15.8845 95.1431 16.3936C94.7613 16.7754 94.125 17.03 93.3613 16.9027V16.0118C93.8704 16.0118 94.2522 15.8845 94.5068 15.63C94.7613 15.3754 94.8886 14.739 94.8886 13.8481V10.03H99.8522Z" fill="white"/>
<path d="M107.361 10.03V17.03H106.47V14.3572H105.325L103.161 17.03H102.016L104.179 14.3572C103.67 14.23 103.161 14.1027 102.779 13.7209C102.397 13.339 102.27 12.83 102.27 12.3209C102.27 11.6845 102.525 11.1754 102.907 10.7936C103.416 10.4118 103.925 10.1572 104.561 10.1572H107.361V10.03ZM104.561 13.4663H106.47V10.9209H104.561C104.179 10.9209 103.797 11.0481 103.543 11.3027C103.288 11.5572 103.161 11.8118 103.161 12.1936C103.161 12.5754 103.288 12.83 103.543 13.0845C103.797 13.339 104.179 13.4663 104.561 13.4663Z" fill="white"/>
<path d="M119.835 10.03V17.03H118.944V10.9209H114.871V17.03H113.98V10.03H119.835Z" fill="white"/>
<path d="M128.234 16.139C127.47 16.9027 126.707 17.1572 125.689 17.1572C124.67 17.1572 123.78 16.7754 123.143 16.139C122.38 15.3754 122.125 14.6118 122.125 13.5936C122.125 12.5754 122.507 11.6845 123.143 11.0481C123.907 10.2845 124.67 10.03 125.689 10.03C126.707 10.03 127.598 10.4118 128.234 11.0481C128.998 11.8118 129.252 12.5754 129.252 13.5936C129.252 14.6118 128.87 15.5027 128.234 16.139ZM123.652 15.5027C124.161 16.0118 124.798 16.2663 125.561 16.2663C126.325 16.2663 126.961 16.0118 127.47 15.5027C127.98 14.9936 128.234 14.3572 128.234 13.5936C128.234 12.83 127.98 12.1936 127.47 11.6845C126.961 11.1754 126.325 10.9209 125.561 10.9209C124.798 10.9209 124.161 11.1754 123.652 11.6845C123.143 12.1936 122.889 12.83 122.889 13.5936C122.889 14.3572 123.143 14.9936 123.652 15.5027Z" fill="white"/>
<path d="M136.252 10.03H137.143V17.03H136.252V13.9754H132.307V17.03H131.416V10.03H132.307V13.0845H136.38V10.03H136.252Z" fill="white"/>
<path d="M144.78 10.03H145.544V17.03H144.653V11.6845L140.453 17.03H139.689V10.03H140.58V15.3754L144.78 10.03Z" fill="white"/>
<path d="M154.962 10.03V17.03H154.071V11.43L151.653 15.3754H151.526L149.108 11.43V17.03H148.217V10.03H149.235L151.653 13.8481L154.071 10.03H154.962Z" fill="white"/>
<path d="M163.489 10.03H164.38V17.03H163.489V15.63C162.852 16.6481 161.961 17.1572 160.689 17.1572C159.67 17.1572 158.78 16.7754 158.143 16.139C157.38 15.3754 157.125 14.6118 157.125 13.5936C157.125 12.5754 157.507 11.6845 158.143 11.0481C158.907 10.2845 159.67 10.03 160.689 10.03C161.961 10.03 162.852 10.539 163.489 11.5572V10.03ZM158.78 15.5027C159.289 16.0118 159.925 16.2663 160.689 16.2663C161.452 16.2663 162.089 16.0118 162.598 15.5027C163.107 14.9936 163.361 14.3572 163.361 13.5936C163.361 12.83 163.107 12.1936 162.598 11.6845C162.089 11.1754 161.452 10.9209 160.689 10.9209C159.925 10.9209 159.289 11.1754 158.78 11.6845C158.27 12.1936 158.016 12.83 158.016 13.5936C158.016 14.3572 158.27 14.9936 158.78 15.5027Z" fill="white"/>
<path d="M172.907 9.90269C173.925 9.90269 174.816 10.2845 175.453 10.9209C176.216 11.6845 176.471 12.4481 176.471 13.4663C176.471 14.4845 176.089 15.3754 175.453 16.0118C174.689 16.7754 173.925 17.03 172.907 17.03C172.016 17.03 171.125 16.7754 170.489 16.1391C169.853 15.5027 169.471 14.7391 169.344 13.8481H167.944V17.03H167.053V10.03H167.944V13.0845H169.344C169.471 12.1936 169.853 11.43 170.489 10.7936C171.125 10.1572 171.889 9.90269 172.907 9.90269ZM170.871 15.5027C171.38 16.0118 172.016 16.2663 172.78 16.2663C173.544 16.2663 174.18 16.0118 174.689 15.5027C175.198 14.9936 175.453 14.3572 175.453 13.5936C175.453 12.83 175.198 12.1936 174.689 11.6845C174.18 11.1754 173.544 10.9209 172.78 10.9209C172.016 10.9209 171.38 11.1754 170.871 11.6845C170.362 12.1936 170.107 12.83 170.107 13.5936C170.107 14.3572 170.362 14.9936 170.871 15.5027Z" fill="white"/>
<path d="M187.926 16.139H188.944V18.939H188.053V17.03H178.635V10.03H179.526V16.139H182.835V10.03H183.726V16.139H187.035V10.03H187.926V16.139Z" fill="white"/>
<path d="M195.942 10.03H196.706V17.03H195.815V11.6845L191.615 17.03H190.852V10.03H191.742V15.3754L195.942 10.03Z" fill="white"/>
<path d="M205.106 17.03H203.961L201.797 14.1027L199.634 17.03H198.488L201.288 13.4663L198.743 10.1572H199.888L201.925 12.83L203.961 10.1572H205.106L202.561 13.4663L205.106 17.03Z" fill="white"/>
<path d="M0 39.6107C0 38.5497 0.235778 37.4887 0.589445 36.4277C0.943113 35.4846 1.53256 34.5415 2.23989 33.8342C2.94723 33.1268 3.77245 32.5374 4.71556 32.1837C5.65868 31.8301 6.71968 31.5943 7.78068 31.5943H37.7245C37.7245 33.8342 36.8993 35.7204 35.3667 37.253C33.8342 38.7855 31.9479 39.6107 29.8259 39.6107H0ZM0 65.9V52.6964C0 50.4565 0.825224 48.6882 2.35778 47.1556C3.89034 45.6231 5.77657 44.7979 7.89857 44.7979H37.7245C37.7245 47.0377 36.8993 48.924 35.3667 50.4565C33.8342 51.9891 31.9479 52.8143 29.8259 52.8143H9.43113C9.07746 52.8143 8.72379 52.9322 8.48801 53.168C8.25224 53.4038 8.13435 53.7574 8.13435 54.1111V65.9H0Z" fill="#ED661B"/>
<path d="M83.347 42.4401V55.0542C83.347 58.2372 82.286 60.8308 80.0461 62.8349C77.9241 64.839 75.2127 65.9 72.1476 65.9H51.9885C48.8055 65.9 46.212 64.839 44.09 62.8349C41.968 60.8308 40.7891 58.2372 40.7891 55.0542V42.4401C40.7891 39.375 41.8501 36.7814 44.09 34.6594C46.212 32.6553 48.9234 31.5943 51.9885 31.5943H72.1476C75.3306 31.5943 77.9241 32.6553 80.0461 34.6594C82.286 36.7814 83.347 39.375 83.347 42.4401ZM75.3306 55.0542V42.558C75.3306 40.6717 74.2696 39.6107 72.1476 39.6107H51.9885C49.8665 39.6107 48.8055 40.5538 48.8055 42.558V55.0542C48.8055 56.9404 49.8665 57.8835 51.9885 57.8835H72.1476C74.2696 57.8835 75.3306 56.9404 75.3306 55.0542Z" fill="#ED661B"/>
<path d="M83.8184 31.7122H115.177C118.36 31.7122 121.071 32.8911 123.311 35.1309C125.551 37.3708 126.73 40.0823 126.73 43.2653C126.73 46.4483 125.551 49.1597 123.311 51.3996C121.071 53.6395 118.36 54.8184 115.177 54.8184H106.335L112.701 65.9H103.506L92.4243 46.802H115.177C116.238 46.802 117.181 46.4483 117.77 45.741C118.36 45.0336 118.714 44.2084 118.714 43.2653C118.714 42.3222 118.36 41.497 117.77 40.7896C117.181 40.0823 116.238 39.6107 115.177 39.6107H92.8958C91.4812 39.6107 90.1844 39.2571 89.0055 38.5497C87.8266 37.8424 86.8835 36.8993 86.1761 35.7204L83.8184 31.7122Z" fill="#ED661B"/>
<path d="M134.865 62.0097C134.158 63.3064 133.214 64.2496 132.036 64.839C130.857 65.5463 129.56 65.9 128.145 65.9H123.43L143.235 31.5943H152.43L157.618 40.6717L162.805 31.5943H172L191.805 65.9H187.09C185.675 65.9 184.378 65.5463 183.199 64.839C182.021 64.1317 181.077 63.1885 180.37 62.0097L167.52 39.6107L154.552 62.0097C153.845 63.3064 152.902 64.2496 151.723 64.839C150.544 65.5463 149.247 65.9 147.715 65.9H142.999L152.902 48.6882L147.715 39.7286L134.865 62.0097Z" fill="#ED661B"/>
<mask id="path-27-inside-1_135_34" fill="white">
<path fill-rule="evenodd" clip-rule="evenodd" d="M182.579 35.1784L181.164 32.7732H210.667C213.557 32.7732 216.002 33.8313 218.052 35.8812C220.102 37.9311 221.16 40.3762 221.16 43.2653C221.16 46.1544 220.102 48.5995 218.052 50.6494C216.002 52.6993 213.557 53.7574 210.667 53.7574H199.993L206.359 64.839H199.607L189.757 47.863H210.667C211.948 47.863 213.231 47.4342 214.076 46.4202C214.798 45.5545 215.265 44.4957 215.265 43.2653C215.265 42.0349 214.798 40.9761 214.076 40.1104C213.284 39.1595 212.041 38.5497 210.667 38.5497H188.386C187.158 38.5497 186.051 38.2454 185.042 37.6399C184.014 37.023 183.196 36.2061 182.579 35.1784Z"/>
</mask>
<path fill-rule="evenodd" clip-rule="evenodd" d="M182.579 35.1784L181.164 32.7732H210.667C213.557 32.7732 216.002 33.8313 218.052 35.8812C220.102 37.9311 221.16 40.3762 221.16 43.2653C221.16 46.1544 220.102 48.5995 218.052 50.6494C216.002 52.6993 213.557 53.7574 210.667 53.7574H199.993L206.359 64.839H199.607L189.757 47.863H210.667C211.948 47.863 213.231 47.4342 214.076 46.4202C214.798 45.5545 215.265 44.4957 215.265 43.2653C215.265 42.0349 214.798 40.9761 214.076 40.1104C213.284 39.1595 212.041 38.5497 210.667 38.5497H188.386C187.158 38.5497 186.051 38.2454 185.042 37.6399C184.014 37.023 183.196 36.2061 182.579 35.1784Z" fill="white"/>
<path d="M181.164 32.7732V31.7732H179.416L180.302 33.2802L181.164 32.7732ZM182.579 35.1784L181.717 35.6854L181.722 35.6934L182.579 35.1784ZM218.052 35.8812L218.759 35.1741V35.1741L218.052 35.8812ZM218.052 50.6494L218.759 51.3565L218.052 50.6494ZM199.993 53.7574V52.7574H198.265L199.126 54.2556L199.993 53.7574ZM206.359 64.839V65.839H208.086L207.226 64.3409L206.359 64.839ZM199.607 64.839L198.743 65.3409L199.032 65.839H199.607V64.839ZM189.757 47.863V46.863H188.021L188.892 48.3649L189.757 47.863ZM214.076 46.4202L213.308 45.78V45.78L214.076 46.4202ZM214.076 40.1104L213.308 40.7506V40.7506L214.076 40.1104ZM185.042 37.6399L185.556 36.7824L185.556 36.7824L185.042 37.6399ZM180.302 33.2802L181.717 35.6854L183.441 34.6713L182.026 32.2662L180.302 33.2802ZM210.667 31.7732H181.164V33.7732H210.667V31.7732ZM218.759 35.1741C216.53 32.9451 213.834 31.7732 210.667 31.7732V33.7732C213.28 33.7732 215.474 34.7175 217.344 36.5883L218.759 35.1741ZM222.16 43.2653C222.16 40.0993 220.988 37.4031 218.759 35.1741L217.344 36.5883C219.215 38.4591 220.16 40.6531 220.16 43.2653H222.16ZM218.759 51.3565C220.988 49.1275 222.16 46.4313 222.16 43.2653H220.16C220.16 45.8775 219.215 48.0714 217.344 49.9423L218.759 51.3565ZM210.667 54.7574C213.834 54.7574 216.53 53.5855 218.759 51.3565L217.344 49.9423C215.474 51.8131 213.28 52.7574 210.667 52.7574V54.7574ZM199.993 54.7574H210.667V52.7574H199.993V54.7574ZM207.226 64.3409L200.86 53.2593L199.126 54.2556L205.492 65.3371L207.226 64.3409ZM199.607 65.839H206.359V63.839H199.607V65.839ZM188.892 48.3649L198.743 65.3409L200.472 64.3371L190.622 47.3611L188.892 48.3649ZM210.667 46.863H189.757V48.863H210.667V46.863ZM213.308 45.78C212.705 46.5041 211.743 46.863 210.667 46.863V48.863C212.153 48.863 213.758 48.3643 214.844 47.0604L213.308 45.78ZM214.265 43.2653C214.265 44.2246 213.905 45.0633 213.308 45.78L214.844 47.0604C215.69 46.0458 216.265 44.7668 216.265 43.2653H214.265ZM213.308 40.7506C213.905 41.4673 214.265 42.306 214.265 43.2653H216.265C216.265 41.7638 215.69 40.4848 214.844 39.4702L213.308 40.7506ZM210.667 39.5497C211.746 39.5497 212.707 40.0293 213.308 40.7506L214.844 39.4702C213.861 38.2897 212.336 37.5497 210.667 37.5497V39.5497ZM188.386 39.5497H210.667V37.5497H188.386V39.5497ZM184.527 38.4974C185.697 39.1989 186.982 39.5497 188.386 39.5497V37.5497C187.334 37.5497 186.405 37.2918 185.556 36.7824L184.527 38.4974ZM181.722 35.6934C182.424 36.8617 183.359 37.7961 184.527 38.4974L185.556 36.7824C184.669 36.2498 183.969 35.5506 183.436 34.6634L181.722 35.6934Z" fill="black" mask="url(#path-27-inside-1_135_34)"/>
<mask id="path-29-inside-2_135_34" fill="white">
<path fill-rule="evenodd" clip-rule="evenodd" d="M229.633 35.7516C231.527 33.9632 233.945 33.0089 236.722 33.0089H256.881C259.769 33.0089 262.071 33.9589 263.969 35.7515C265.964 37.6412 266.901 39.9205 266.901 42.6758V55.29C266.901 58.1772 265.955 60.4367 263.993 62.1921L263.981 62.2027L263.97 62.2136C262.076 64.0024 259.658 64.9569 256.881 64.9569H236.722C233.833 64.9569 231.531 64.0067 229.633 62.2136C227.746 60.4314 226.701 58.1475 226.701 55.29V42.6758C226.701 39.9206 227.639 37.6413 229.633 35.7516ZM236.722 38.6676C235.512 38.6676 234.374 38.9335 233.538 39.6996C232.682 40.4843 232.36 41.5918 232.36 42.7937V55.29C232.36 56.4531 232.693 57.5305 233.551 58.2931C234.383 59.0322 235.511 59.2982 236.722 59.2982H256.881C258.092 59.2982 259.22 59.0322 260.051 58.2931C260.909 57.5305 261.243 56.4531 261.243 55.29V42.7937C261.243 41.6326 260.911 40.5432 260.077 39.7557C259.255 38.9787 258.124 38.6676 256.881 38.6676H236.722Z"/>
</mask>
<path fill-rule="evenodd" clip-rule="evenodd" d="M229.633 35.7516C231.527 33.9632 233.945 33.0089 236.722 33.0089H256.881C259.769 33.0089 262.071 33.9589 263.969 35.7515C265.964 37.6412 266.901 39.9205 266.901 42.6758V55.29C266.901 58.1772 265.955 60.4367 263.993 62.1921L263.981 62.2027L263.97 62.2136C262.076 64.0024 259.658 64.9569 256.881 64.9569H236.722C233.833 64.9569 231.531 64.0067 229.633 62.2136C227.746 60.4314 226.701 58.1475 226.701 55.29V42.6758C226.701 39.9206 227.639 37.6413 229.633 35.7516ZM236.722 38.6676C235.512 38.6676 234.374 38.9335 233.538 39.6996C232.682 40.4843 232.36 41.5918 232.36 42.7937V55.29C232.36 56.4531 232.693 57.5305 233.551 58.2931C234.383 59.0322 235.511 59.2982 236.722 59.2982H256.881C258.092 59.2982 259.22 59.0322 260.051 58.2931C260.909 57.5305 261.243 56.4531 261.243 55.29V42.7937C261.243 41.6326 260.911 40.5432 260.077 39.7557C259.255 38.9787 258.124 38.6676 256.881 38.6676H236.722Z" fill="white"/>
<path d="M229.633 35.7516L228.947 35.0246L228.945 35.0257L229.633 35.7516ZM263.969 35.7515L264.657 35.0256L264.656 35.0244L263.969 35.7515ZM263.993 62.1921L264.66 62.9374L264.66 62.9373L263.993 62.1921ZM263.981 62.2027L263.315 61.4574L263.305 61.4664L263.295 61.4757L263.981 62.2027ZM263.97 62.2136L264.657 62.9406L264.657 62.9405L263.97 62.2136ZM229.633 62.2136L228.946 62.9406H228.946L229.633 62.2136ZM233.538 39.6996L234.214 40.4367L233.538 39.6996ZM233.551 58.2931L234.216 57.5457H234.216L233.551 58.2931ZM260.051 58.2931L260.716 59.0405L260.051 58.2931ZM260.077 39.7557L260.764 39.0287L260.764 39.0287L260.077 39.7557ZM236.722 32.0089C233.701 32.0089 231.034 33.0536 228.947 35.0246L230.32 36.4787C232.02 34.8729 234.19 34.0089 236.722 34.0089V32.0089ZM256.881 32.0089H236.722V34.0089H256.881V32.0089ZM264.656 35.0244C262.568 33.0529 260.019 32.0089 256.881 32.0089V34.0089C259.519 34.0089 261.574 34.8649 263.283 36.4786L264.656 35.0244ZM267.901 42.6758C267.901 39.6579 266.859 37.1122 264.657 35.0256L263.281 36.4774C265.068 38.1702 265.901 40.1832 265.901 42.6758H267.901ZM267.901 55.29V42.6758H265.901V55.29H267.901ZM264.66 62.9373C266.858 60.9712 267.901 58.4284 267.901 55.29H265.901C265.901 57.926 265.053 59.9023 263.326 61.4469L264.66 62.9373ZM264.648 62.948L264.66 62.9374L263.327 61.4468L263.315 61.4574L264.648 62.948ZM264.657 62.9405L264.668 62.9296L263.295 61.4757L263.283 61.4867L264.657 62.9405ZM256.881 65.9569C259.902 65.9569 262.569 64.912 264.657 62.9406L263.283 61.4866C261.583 63.0927 259.413 63.9569 256.881 63.9569V65.9569ZM236.722 65.9569H256.881V63.9569H236.722V65.9569ZM228.946 62.9406C231.034 64.9127 233.583 65.9569 236.722 65.9569V63.9569C234.083 63.9569 232.028 63.1007 230.319 61.4866L228.946 62.9406ZM225.701 55.29C225.701 58.4236 226.86 60.9702 228.946 62.9406L230.319 61.4866C228.632 59.8927 227.701 57.8715 227.701 55.29H225.701ZM225.701 42.6758V55.29H227.701V42.6758H225.701ZM228.945 35.0257C226.743 37.1123 225.701 39.658 225.701 42.6758H227.701C227.701 40.1833 228.535 38.1703 230.321 36.4775L228.945 35.0257ZM234.214 40.4367C234.79 39.9084 235.637 39.6676 236.722 39.6676V37.6676C235.386 37.6676 233.957 37.9585 232.862 38.9624L234.214 40.4367ZM233.36 42.7937C233.36 41.7595 233.635 40.9674 234.214 40.4367L232.862 38.9624C231.729 40.0012 231.36 41.4241 231.36 42.7937H233.36ZM233.36 55.29V42.7937H231.36V55.29H233.36ZM234.216 57.5457C233.637 57.0309 233.36 56.2684 233.36 55.29H231.36C231.36 56.6379 231.75 58.0301 232.887 59.0405L234.216 57.5457ZM236.722 58.2982C235.637 58.2982 234.791 58.0574 234.216 57.5457L232.887 59.0405C233.974 60.0069 235.385 60.2982 236.722 60.2982V58.2982ZM256.881 58.2982H236.722V60.2982H256.881V58.2982ZM259.387 57.5457C258.811 58.0574 257.965 58.2982 256.881 58.2982V60.2982C258.218 60.2982 259.628 60.0069 260.716 59.0405L259.387 57.5457ZM260.243 55.29C260.243 56.2684 259.966 57.0309 259.387 57.5457L260.716 59.0405C261.852 58.0301 262.243 56.6379 262.243 55.29H260.243ZM260.243 42.7937V55.29H262.243V42.7937H260.243ZM259.391 40.4827C259.967 41.0264 260.243 41.816 260.243 42.7937H262.243C262.243 41.4491 261.856 40.06 260.764 39.0287L259.391 40.4827ZM256.881 39.6676C257.971 39.6676 258.817 39.9404 259.391 40.4827L260.764 39.0287C259.693 38.017 258.277 37.6676 256.881 37.6676V39.6676ZM236.722 39.6676H256.881V37.6676H236.722V39.6676Z" fill="black" mask="url(#path-29-inside-2_135_34)"/>
<mask id="path-31-inside-3_135_34" fill="white">
<path fill-rule="evenodd" clip-rule="evenodd" d="M290.553 33.5651C291.562 32.9596 292.669 32.6553 293.897 32.6553H296.772L287.484 48.6882L296.772 64.7211H293.897C292.669 64.7211 291.562 64.4167 290.553 63.8113C289.527 63.1957 288.711 62.381 288.094 61.3563L284.249 54.5886L280.243 61.3677L280.234 61.3837C279.617 62.5142 278.824 63.2911 277.862 63.7721L277.825 63.7903L277.79 63.8113C276.781 64.4167 275.674 64.7211 274.446 64.7211H271.521L280.741 48.8061L271.453 32.7732H274.328C275.195 32.7732 275.979 32.8835 276.621 33.1589C277.469 33.5222 278.149 33.8212 278.718 34.2956C279.325 34.8011 279.833 35.4094 280.244 36.1278L280.244 36.1289L284.095 42.9057L288.1 36.1266L288.109 36.1106C288.723 34.9862 289.53 34.1791 290.553 33.5651Z"/>
</mask>
<path fill-rule="evenodd" clip-rule="evenodd" d="M290.553 33.5651C291.562 32.9596 292.669 32.6553 293.897 32.6553H296.772L287.484 48.6882L296.772 64.7211H293.897C292.669 64.7211 291.562 64.4167 290.553 63.8113C289.527 63.1957 288.711 62.381 288.094 61.3563L284.249 54.5886L280.243 61.3677L280.234 61.3837C279.617 62.5142 278.824 63.2911 277.862 63.7721L277.825 63.7903L277.79 63.8113C276.781 64.4167 275.674 64.7211 274.446 64.7211H271.521L280.741 48.8061L271.453 32.7732H274.328C275.195 32.7732 275.979 32.8835 276.621 33.1589C277.469 33.5222 278.149 33.8212 278.718 34.2956C279.325 34.8011 279.833 35.4094 280.244 36.1278L280.244 36.1289L284.095 42.9057L288.1 36.1266L288.109 36.1106C288.723 34.9862 289.53 34.1791 290.553 33.5651Z" fill="white"/>
<path d="M290.553 33.5651L291.067 34.4226V34.4226L290.553 33.5651ZM296.772 32.6553L297.637 33.1565L298.507 31.6553H296.772V32.6553ZM287.484 48.6882L286.619 48.1869L286.328 48.6882L286.619 49.1895L287.484 48.6882ZM296.772 64.7211V65.7211H298.507L297.637 64.2198L296.772 64.7211ZM290.553 63.8113L290.038 64.6688H290.038L290.553 63.8113ZM288.094 61.3563L287.224 61.8503L287.231 61.8613L287.237 61.8722L288.094 61.3563ZM284.249 54.5886L285.118 54.0946L284.266 52.5942L283.388 54.0799L284.249 54.5886ZM280.243 61.3677L279.382 60.859L279.373 60.8738L279.365 60.8889L280.243 61.3677ZM280.234 61.3837L281.112 61.8626L281.112 61.8625L280.234 61.3837ZM277.862 63.7721L277.414 62.8777L277.414 62.8777L277.862 63.7721ZM277.825 63.7903L277.378 62.8959L277.344 62.9131L277.311 62.9328L277.825 63.7903ZM277.79 63.8113L277.276 62.9538L277.276 62.9538L277.79 63.8113ZM271.521 64.7211L270.656 64.2198L269.786 65.7211H271.521V64.7211ZM280.741 48.8061L281.606 49.3074L281.897 48.8061L281.606 48.3048L280.741 48.8061ZM271.453 32.7732V31.7732H269.718L270.588 33.2744L271.453 32.7732ZM276.621 33.1589L277.015 32.2398V32.2398L276.621 33.1589ZM278.718 34.2956L278.078 35.0638L278.078 35.0638L278.718 34.2956ZM280.244 36.1278L279.375 36.6241L279.376 36.6243L280.244 36.1278ZM280.244 36.1289L281.114 35.6349L281.112 35.6324L280.244 36.1289ZM284.095 42.9057L283.225 43.3997L284.078 44.9001L284.956 43.4144L284.095 42.9057ZM288.1 36.1266L288.961 36.6353L288.97 36.6205L288.978 36.6053L288.1 36.1266ZM288.109 36.1106L287.231 35.6317L287.231 35.6318L288.109 36.1106ZM293.897 31.6553C292.493 31.6553 291.208 32.0061 290.038 32.7076L291.067 34.4226C291.916 33.9132 292.845 33.6553 293.897 33.6553V31.6553ZM296.772 31.6553H293.897V33.6553H296.772V31.6553ZM288.349 49.1895L297.637 33.1565L295.907 32.154L286.619 48.1869L288.349 49.1895ZM297.637 64.2198L288.349 48.1869L286.619 49.1895L295.907 65.2224L297.637 64.2198ZM293.897 65.7211H296.772V63.7211H293.897V65.7211ZM290.038 64.6688C291.208 65.3703 292.493 65.7211 293.897 65.7211V63.7211C292.845 63.7211 291.916 63.4632 291.067 62.9538L290.038 64.6688ZM287.237 61.8722C287.939 63.037 288.872 63.969 290.038 64.6688L291.067 62.9538C290.182 62.4223 289.483 61.7249 288.951 60.8405L287.237 61.8722ZM283.379 55.0826L287.224 61.8503L288.963 60.8623L285.118 54.0946L283.379 55.0826ZM281.104 61.8764L285.109 55.0973L283.388 54.0799L279.382 60.859L281.104 61.8764ZM281.112 61.8625L281.121 61.8465L279.365 60.8889L279.356 60.9049L281.112 61.8625ZM278.309 64.6665C279.475 64.0834 280.41 63.1499 281.112 61.8626L279.356 60.9049C278.825 61.8785 278.172 62.4987 277.414 62.8777L278.309 64.6665ZM278.272 64.6847L278.309 64.6665L277.414 62.8777L277.378 62.8959L278.272 64.6847ZM278.305 64.6688L278.34 64.6478L277.311 62.9328L277.276 62.9538L278.305 64.6688ZM274.446 65.7211C275.85 65.7211 277.136 65.3703 278.305 64.6688L277.276 62.9538C276.427 63.4632 275.498 63.7211 274.446 63.7211V65.7211ZM271.521 65.7211H274.446V63.7211H271.521V65.7211ZM279.876 48.3048L270.656 64.2198L272.387 65.2224L281.606 49.3074L279.876 48.3048ZM270.588 33.2744L279.876 49.3074L281.606 48.3048L272.318 32.2719L270.588 33.2744ZM274.328 31.7732H271.453V33.7732H274.328V31.7732ZM277.015 32.2398C276.201 31.8906 275.267 31.7732 274.328 31.7732V33.7732C275.124 33.7732 275.757 33.8765 276.227 34.0781L277.015 32.2398ZM279.358 33.5274C278.658 32.9441 277.84 32.5932 277.015 32.2398L276.227 34.0781C277.098 34.4513 277.639 34.6984 278.078 35.0638L279.358 33.5274ZM281.112 35.6315C280.644 34.8129 280.059 34.1117 279.358 33.5274L278.078 35.0638C278.59 35.4906 279.022 36.0058 279.375 36.6241L281.112 35.6315ZM281.112 35.6324L281.112 35.6314L279.376 36.6243L279.376 36.6254L281.112 35.6324ZM284.964 42.4117L281.114 35.6349L279.375 36.6229L283.225 43.3997L284.964 42.4117ZM287.24 35.6178L283.234 42.3969L284.956 43.4144L288.961 36.6353L287.24 35.6178ZM287.231 35.6318L287.223 35.6478L288.978 36.6053L288.987 36.5893L287.231 35.6318ZM290.038 32.7076C288.869 33.4096 287.933 34.3449 287.231 35.6317L288.987 36.5894C289.512 35.6275 290.191 34.9487 291.067 34.4226L290.038 32.7076Z" fill="black" mask="url(#path-31-inside-3_135_34)"/>
<path fill-rule="evenodd" clip-rule="evenodd" d="M211.375 0C206.66 34.5415 287.06 33.5984 282.58 0C287.06 19.8054 268.787 28.5292 259.12 29.1186C259.238 29.1186 265.133 30.7691 267.255 33.7163C262.657 35.1309 257.352 33.5984 256.527 35.0131C256.527 35.0131 256.88 38.5497 255.584 40.7896C253.108 45.3873 257.941 47.863 251.693 53.7574C244.384 60.595 248.864 60.0055 242.144 53.7574C235.896 47.9809 240.73 45.3873 238.254 40.7896C236.957 38.4318 237.429 35.0131 237.311 35.0131C236.486 33.5984 231.298 35.1309 226.583 33.7163C228.705 30.7691 234.599 29.1186 234.717 29.1186C225.286 28.5292 206.895 19.8054 211.375 0Z" fill="white"/>
<path d="M246.978 52.5785C248.02 52.5785 248.864 52.1563 248.864 51.6354C248.864 51.1146 248.02 50.6923 246.978 50.6923C245.936 50.6923 245.092 51.1146 245.092 51.6354C245.092 52.1563 245.936 52.5785 246.978 52.5785Z" stroke="black" stroke-width="0.6" stroke-miterlimit="10"/>
<path d="M248.038 49.8671H245.916V51.6354H248.038V49.8671Z" fill="white"/>
</svg>
