<svg width="50" height="50" viewBox="0 0 50 50" fill="none" xmlns="http://www.w3.org/2000/svg">
<path d="M5.46773 28.686H14.8027V31.989H5.46773V28.686Z" stroke="white" stroke-width="1.5" stroke-miterlimit="10" stroke-linecap="round" stroke-linejoin="round"/>
<path d="M5.46773 31.9895H14.8027V35.2925H5.46773V31.9895Z" stroke="white" stroke-width="1.5" stroke-miterlimit="10" stroke-linecap="round" stroke-linejoin="round"/>
<path d="M5.46773 35.2925H14.8027V38.5955H5.46773V35.2925Z" stroke="white" stroke-width="1.5" stroke-miterlimit="10" stroke-linecap="round" stroke-linejoin="round"/>
<path d="M5.46773 38.5955H14.8027V41.8985H5.46773V38.5955Z" stroke="white" stroke-width="1.5" stroke-miterlimit="10" stroke-linecap="round" stroke-linejoin="round"/>
<path d="M35.138 17.125H38.8435V29.153H35.138C34.1305 29.153 33.314 28.336 33.314 27.329V18.949C33.314 17.9415 34.131 17.125 35.138 17.125ZM43.2815 47.4095C43.4435 47.4095 43.6085 47.378 43.767 47.311C44.403 47.0425 44.701 46.3095 44.4325 45.6735L40.028 35.2375C39.8325 34.7745 39.379 34.4735 38.8765 34.4735H30.796L28.081 24.6665C27.8975 24.001 27.21 23.61 26.543 23.7955C25.8775 23.9795 25.4875 24.6685 25.672 25.3335L28.6405 36.057C28.7905 36.5985 29.283 36.9735 29.845 36.9735H38.0475L42.1295 46.6455C42.331 47.123 42.7945 47.4095 43.2815 47.4095Z" stroke="white" stroke-width="1.5" stroke-miterlimit="10" stroke-linecap="round" stroke-linejoin="round"/>
<path d="M11.8509 8.61203C10.9035 8.61203 10.1354 7.84397 10.1354 6.89653C10.1354 5.94909 10.9035 5.18103 11.8509 5.18103C12.7983 5.18103 13.5664 5.94909 13.5664 6.89653C13.5664 7.84397 12.7983 8.61203 11.8509 8.61203Z" stroke="white" stroke-width="1.5" stroke-miterlimit="10" stroke-linecap="round" stroke-linejoin="round"/>
<path d="M23.1417 2.5V45H33.1152V36.9735H35.6152V45H39.4277V47.5H20.5717V2.5H23.1417Z" stroke="white" stroke-width="1.5" stroke-miterlimit="10" stroke-linecap="round" stroke-linejoin="round"/>
<path d="M10.1348 28.686V6.89648" stroke="white" stroke-width="1.5" stroke-miterlimit="10" stroke-linecap="round" stroke-linejoin="round"/>
<path d="M11.8503 5.18048H35.3968C37.3003 5.18048 38.8438 6.72348 38.8438 8.62748V19.7815" stroke="white" stroke-width="1.5" stroke-miterlimit="10" stroke-linecap="round" stroke-linejoin="round"/>
</svg>
