<svg width="48" height="48" viewBox="0 0 48 48" fill="none" xmlns="http://www.w3.org/2000/svg">
<g clip-path="url(#clip0_231_20)">
<path d="M26 48H22C20.346 48 19 46.654 19 45V41.276C17.7199 40.906 16.4852 40.3938 15.319 39.749L12.685 42.384C11.551 43.518 9.576 43.516 8.442 42.384L5.613 39.556C5.046 38.99 4.734 38.236 4.734 37.435C4.734 36.634 5.046 35.88 5.613 35.314L8.248 32.678C7.60317 31.5128 7.09162 30.2787 6.723 28.999H3C1.346 28.999 0 27.653 0 25.999V21.999C0 21.197 0.312 20.444 0.878 19.878C1.1561 19.5986 1.48682 19.377 1.85104 19.2262C2.21526 19.0753 2.60577 18.9981 3 18.999H6.724C7.094 17.721 7.604 16.488 8.25 15.32L5.616 12.685C5.05408 12.1222 4.73847 11.3593 4.73847 10.564C4.73847 9.76867 5.05408 9.00584 5.616 8.443L8.444 5.614C9.577 4.482 11.553 4.48 12.687 5.614L15.322 8.249C16.4873 7.60504 17.7209 7.09352 19 6.724V3C19 1.346 20.346 0 22 0H26C27.654 0 29 1.346 29 3V6.724C30.28 7.094 31.512 7.605 32.678 8.249L35.313 5.614C36.447 4.482 38.422 4.48 39.556 5.614L42.385 8.442C42.952 9.008 43.264 9.762 43.264 10.563C43.264 11.364 42.952 12.118 42.385 12.684L39.751 15.319C40.396 16.4846 40.9079 17.719 41.277 18.999H45C46.654 18.999 48 20.345 48 21.999V25.999C48 26.801 47.688 27.554 47.122 28.12C46.556 28.686 45.802 28.999 45 28.999H41.276C40.9062 30.2788 40.3944 31.5131 39.75 32.679L42.384 35.314C42.9459 35.8768 43.2615 36.6397 43.2615 37.435C43.2615 38.2303 42.9459 38.9932 42.384 39.556L39.556 42.385C38.422 43.518 36.447 43.518 35.313 42.385L32.68 39.75C31.5144 40.3943 30.2804 40.9061 29.001 41.276V45C28.9997 45.7954 28.683 46.5579 28.1205 47.1202C27.558 47.6826 26.7954 47.9989 26 48ZM15.157 37.498C15.336 37.498 15.517 37.546 15.678 37.644C17.0892 38.5079 18.6267 39.146 20.235 39.535C20.4531 39.5877 20.6471 39.7122 20.7858 39.8885C20.9246 40.0648 21 40.2827 21 40.507V45C21 45.552 21.449 46 22 46H26C26.551 46 27 45.552 27 45V40.507C27 40.2827 27.0754 40.0648 27.2142 39.8885C27.3529 39.7122 27.5469 39.5877 27.765 39.535C29.3729 39.1462 30.9101 38.5085 32.321 37.645C32.717 37.404 33.223 37.465 33.55 37.791L36.728 40.97C37.103 41.344 37.767 41.346 38.143 40.97L40.971 38.141C41.1585 37.9535 41.2638 37.6992 41.2638 37.434C41.2638 37.1688 41.1585 36.9145 40.971 36.727L37.792 33.548C37.6332 33.3893 37.5325 33.1817 37.506 32.9588C37.4795 32.7359 37.5288 32.5105 37.646 32.319C38.5094 30.9081 39.1468 29.3709 39.535 27.763C39.5875 27.5448 39.712 27.3505 39.8883 27.2116C40.0646 27.0726 40.2825 26.9971 40.507 26.997H45C45.1313 26.9975 45.2614 26.9721 45.3828 26.9221C45.5043 26.8722 45.6146 26.7987 45.7076 26.706C45.8005 26.6132 45.8742 26.503 45.9244 26.3817C45.9746 26.2604 46.0003 26.1303 46 25.999V21.999C46 21.447 45.551 20.999 45 20.999H40.507C40.2825 20.9991 40.0644 20.9236 39.8881 20.7846C39.7118 20.6457 39.5874 20.4513 39.535 20.233C39.1469 18.6251 38.5095 17.0878 37.646 15.677C37.5288 15.4855 37.4795 15.2601 37.506 15.0372C37.5325 14.8143 37.6332 14.6067 37.792 14.448L40.971 11.269C41.157 11.082 41.264 10.825 41.264 10.562C41.264 10.299 41.157 10.041 40.971 9.855L38.142 7.027C37.9511 6.84559 37.6978 6.74443 37.4345 6.74443C37.1712 6.74443 36.9179 6.84559 36.727 7.027L33.548 10.206C33.3897 10.3656 33.1821 10.4668 32.959 10.4933C32.7358 10.5198 32.5102 10.47 32.319 10.352C30.9087 9.48886 29.3722 8.85149 27.765 8.463C27.547 8.41084 27.353 8.28675 27.2142 8.11076C27.0754 7.93477 26.9999 7.71714 27 7.493V3C27 2.448 26.551 2 26 2H22C21.449 2 21 2.448 21 3V7.493C21 7.71735 20.9246 7.93517 20.7858 8.11147C20.6471 8.28776 20.4531 8.41228 20.235 8.465C18.6272 8.85344 17.09 9.4908 15.679 10.354C15.4877 10.4712 15.2625 10.5206 15.0397 10.4941C14.8169 10.4676 14.6095 10.3668 14.451 10.208L11.272 7.029C11.0811 6.84759 10.8278 6.74643 10.5645 6.74643C10.3012 6.74643 10.0479 6.84759 9.857 7.029L7.03 9.857C6.84253 10.0445 6.73721 10.2988 6.73721 10.564C6.73721 10.8292 6.84253 11.0835 7.03 11.271L10.209 14.45C10.3678 14.6087 10.4685 14.8163 10.495 15.0392C10.5215 15.2621 10.4722 15.4875 10.355 15.679C9.49164 17.0895 8.85427 18.6264 8.466 20.234C8.41347 20.4522 8.28904 20.6465 8.11273 20.7854C7.93641 20.9244 7.71848 20.9999 7.494 21H3C2.86861 20.9995 2.73842 21.0249 2.61692 21.0749C2.49542 21.125 2.38502 21.1985 2.29207 21.2914C2.19912 21.3842 2.12546 21.4946 2.07533 21.616C2.02521 21.7374 1.9996 21.8676 2 21.999V25.999C2 26.551 2.449 26.999 3 26.999H7.493C7.955 26.999 8.357 27.315 8.465 27.765C8.85343 29.3725 9.49079 30.9094 10.354 32.32C10.4712 32.5115 10.5205 32.7369 10.494 32.9598C10.4675 33.1827 10.3668 33.3903 10.208 33.549L7.029 36.729C6.843 36.916 6.736 37.173 6.736 37.436C6.736 37.699 6.843 37.957 7.029 38.143L9.858 40.971C10.0489 41.1524 10.3022 41.2536 10.5655 41.2536C10.8288 41.2536 11.0821 41.1524 11.273 40.971L14.451 37.792C14.5433 37.6986 14.6533 37.6245 14.7745 37.5741C14.8957 37.5236 15.0257 37.4977 15.157 37.498Z" fill="white"/>
<path d="M24 34C18.486 34 14 29.514 14 24C14 18.486 18.486 14 24 14C29.514 14 34 18.486 34 24C34 29.514 29.515 34 24 34ZM24 16C19.589 16 16 19.589 16 24C16 28.411 19.589 32 24 32C28.411 32 32 28.411 32 24C32 19.589 28.412 16 24 16Z" fill="white"/>
</g>
<defs>
<clipPath id="clip0_231_20">
<rect width="48" height="48" fill="white"/>
</clipPath>
</defs>
</svg>
