<svg width="50" height="50" viewBox="0 0 50 50" fill="none" xmlns="http://www.w3.org/2000/svg">
<path d="M7.77344 10.9376C6.05469 10.9376 4.64844 12.3439 4.64844 14.0626V25.7814C4.64844 25.9886 4.73075 26.1872 4.87726 26.3337C5.02377 26.4803 5.22249 26.5626 5.42969 26.5626C5.63689 26.5626 5.8356 26.4803 5.98211 26.3337C6.12863 26.1872 6.21094 25.9886 6.21094 25.7814V14.0626C6.21094 13.1829 6.89375 12.5001 7.77344 12.5001H31.2109C32.0906 12.5001 32.7734 13.1829 32.7734 14.0626V29.6876C32.7734 30.5673 32.0906 31.2501 31.2109 31.2501H21.0547C20.8475 31.2501 20.6488 31.3323 20.5023 31.4788C20.3557 31.6253 20.2734 31.8242 20.2734 32.0314C20.2734 32.2386 20.3557 32.4372 20.5023 32.5837C20.6488 32.7303 20.8475 32.8126 21.0547 32.8126H31.2109C32.9297 32.8126 34.3359 31.4064 34.3359 29.6876V17.1876H40.8828C41.5344 17.1876 41.8734 17.3797 42.1969 17.7032C42.4531 17.9594 42.6688 18.3376 42.875 18.7501H36.7313C36.524 18.7501 36.3253 18.8323 36.1788 18.9788C36.0323 19.1253 35.95 19.3242 35.95 19.5314C35.95 19.7386 36.0323 19.9372 36.1788 20.0837C36.3253 20.2303 36.524 20.3126 36.7313 20.3126H37.5V26.0312C37.5 27.1797 38.45 28.1251 39.5969 28.1251H46.875V30.4689H45.625C45.4178 30.4689 45.2191 30.5511 45.0726 30.6976C44.9261 30.8441 44.8438 31.0429 44.8438 31.2501C44.8438 31.4573 44.9261 31.656 45.0726 31.8025C45.2191 31.949 45.4178 32.0314 45.625 32.0314H46.875V32.8126C46.875 33.6923 46.1922 34.3751 45.3125 34.3751H42.1875C42.1842 33.2365 41.7304 32.1454 40.9253 31.3403C40.1202 30.5352 39.0292 30.0815 37.8906 30.0782C36.752 30.0815 35.661 30.5352 34.8559 31.3403C34.0508 32.1454 33.597 33.2365 33.5938 34.3751H19.5312C19.528 33.2365 19.0742 32.1454 18.2691 31.3403C17.464 30.5352 16.373 30.0815 15.2344 30.0782C14.0958 30.0815 13.0048 30.5352 12.1997 31.3403C11.3946 32.1454 10.9408 33.2365 10.9375 34.3751H7.03125C6.92795 34.3777 6.82521 34.3591 6.72926 34.3208C6.63331 34.2824 6.54616 34.225 6.47309 34.152C6.40003 34.0789 6.34258 33.9918 6.30423 33.8958C6.26588 33.7999 6.24743 33.6972 6.25 33.5939V32.8126H8.58281C8.79001 32.8126 8.98873 32.7303 9.13524 32.5837C9.28175 32.4372 9.36406 32.2386 9.36406 32.0314C9.36406 31.8242 9.28175 31.6253 9.13524 31.4788C8.98873 31.3323 8.79001 31.2501 8.58281 31.2501H2.34375C2.13655 31.2501 1.93784 31.3323 1.79132 31.4788C1.64481 31.6253 1.5625 31.8242 1.5625 32.0314C1.5625 32.2386 1.64481 32.4372 1.79132 32.5837C1.93784 32.7303 2.13655 32.8126 2.34375 32.8126H4.6875V33.5939C4.6875 34.8798 5.74687 35.9376 7.03125 35.9376H11.2438C11.5588 36.7405 12.1075 37.4303 12.819 37.9178C13.5305 38.4053 14.3719 38.6681 15.2344 38.672C17.0469 38.672 18.5969 37.5314 19.2266 35.9376H33.8984C34.2135 36.7408 34.7626 37.4307 35.4743 37.9182C36.1861 38.4057 37.0279 38.6684 37.8906 38.672C39.7031 38.672 41.2531 37.5314 41.8828 35.9376H45.3125C47.0312 35.9376 48.4375 34.5314 48.4375 32.8126V31.3718C48.4509 31.289 48.4509 31.2047 48.4375 31.1219V27.3439C48.437 27.2333 48.413 27.124 48.3672 27.0234L44.4609 18.4266C44.1922 17.8329 43.8641 17.1609 43.3016 16.5984C42.9826 16.2841 42.6045 16.0362 42.189 15.8691C41.7735 15.702 41.329 15.6191 40.8812 15.6251H34.3359V14.0626C34.3359 12.3439 32.9297 10.9376 31.2109 10.9376H7.77344ZM24.1828 17.3188C23.98 17.3242 23.7873 17.4081 23.6453 17.5531L17.9328 23.2126L15.3453 20.622C15.1988 20.4749 14.9999 20.3918 14.7923 20.3914C14.5847 20.391 14.3854 20.473 14.2383 20.6195C14.0912 20.766 14.0083 20.965 14.0078 21.1726C14.0074 21.3803 14.0894 21.5794 14.2359 21.7265L17.3766 24.8672C17.5231 25.0136 17.7217 25.0959 17.9289 25.0959C18.1361 25.0959 18.3347 25.0136 18.4813 24.8672L24.7438 18.6626C24.8584 18.5535 24.9372 18.4121 24.9697 18.2573C25.0023 18.1024 24.9871 17.9415 24.9261 17.7955C24.8652 17.6495 24.7613 17.5255 24.6283 17.4398C24.4953 17.3541 24.3394 17.3107 24.1812 17.3156L24.1828 17.3188ZM39.0625 20.3126H43.6047L46.4422 26.5626H39.5984C39.5276 26.5657 39.457 26.554 39.3909 26.5285C39.3248 26.5029 39.2647 26.4639 39.2144 26.414C39.164 26.3642 39.1246 26.3044 39.0984 26.2386C39.0723 26.1727 39.0601 26.1021 39.0625 26.0312V20.3126ZM3.82812 28.1251C3.72553 28.1303 3.62495 28.1555 3.53213 28.1995C3.4393 28.2435 3.35606 28.3053 3.28714 28.3815C3.21822 28.4576 3.16498 28.5466 3.13046 28.6433C3.09594 28.7401 3.08081 28.8427 3.08594 28.9453C3.09107 29.0479 3.11635 29.1485 3.16036 29.2413C3.20436 29.3341 3.26621 29.4175 3.34238 29.4864C3.41855 29.5553 3.50756 29.6085 3.60431 29.643C3.70105 29.6775 3.80365 29.6928 3.90625 29.6876H10.1562C10.3635 29.6876 10.5622 29.6053 10.7087 29.4587C10.8552 29.3122 10.9375 29.1136 10.9375 28.9064C10.9375 28.6992 10.8552 28.5003 10.7087 28.3538C10.5622 28.2073 10.3635 28.1251 10.1562 28.1251H3.90625C3.88022 28.1238 3.85415 28.1238 3.82812 28.1251ZM15.2344 31.6407C16.7547 31.6407 17.9688 32.8564 17.9688 34.3751C17.9688 35.8954 16.7547 37.1095 15.2344 37.1095C13.7156 37.1095 12.5 35.8954 12.5 34.3751C12.5 32.8564 13.7156 31.6407 15.2344 31.6407ZM37.8906 31.6407C39.4109 31.6407 40.625 32.8564 40.625 34.3751C40.625 35.8954 39.4109 37.1095 37.8906 37.1095C36.3719 37.1095 35.1562 35.8954 35.1562 34.3751C35.1562 32.8564 36.3719 31.6407 37.8906 31.6407ZM15.2344 33.2032C14.9236 33.2032 14.6255 33.3266 14.4057 33.5464C14.186 33.7661 14.0625 34.0643 14.0625 34.3751C14.0625 34.6859 14.186 34.9839 14.4057 35.2037C14.6255 35.4234 14.9236 35.547 15.2344 35.547C15.5452 35.547 15.8432 35.4234 16.063 35.2037C16.2828 34.9839 16.4062 34.6859 16.4062 34.3751C16.4062 34.0643 16.2828 33.7661 16.063 33.5464C15.8432 33.3266 15.5452 33.2032 15.2344 33.2032ZM37.8906 33.2032C37.5798 33.2032 37.2818 33.3266 37.062 33.5464C36.8422 33.7661 36.7188 34.0643 36.7188 34.3751C36.7188 34.6859 36.8422 34.9839 37.062 35.2037C37.2818 35.4234 37.5798 35.547 37.8906 35.547C38.2014 35.547 38.4995 35.4234 38.7193 35.2037C38.939 34.9839 39.0625 34.6859 39.0625 34.3751C39.0625 34.0643 38.939 33.7661 38.7193 33.5464C38.4995 33.3266 38.2014 33.2032 37.8906 33.2032Z" fill="white"/>
</svg>
