<svg width="50" height="50" viewBox="0 0 50 50" fill="none" xmlns="http://www.w3.org/2000/svg">
<path d="M42.5 32.5V41.5C42.5 42.05 42.05 42.5 41.5 42.5C40.95 42.5 40.5 42.05 40.5 41.5V32.5C40.5 31.95 40.95 31.5 41.5 31.5C42.05 31.5 42.5 31.95 42.5 32.5ZM47.5 29.5V44.5C47.5 46.15 46.15 47.5 44.5 47.5H31.5H25.5H16.5H8.5H5.5C3.85 47.5 2.5 46.15 2.5 44.5V5.5C2.5 3.85 3.85 2.5 5.5 2.5H8.5H13.5H37.5C39.15 2.5 40.5 3.85 40.5 5.5V26.5H44.5C46.15 26.5 47.5 27.85 47.5 29.5ZM9.5 11.5H11.5C12.05 11.5 12.5 11.05 12.5 10.5V4.5H9.5V11.5ZM4.5 5.5V20.5H7.5V12.5V4.5H5.5C4.95 4.5 4.5 4.95 4.5 5.5ZM15.5 45.5V42.5H8.5C7.95 42.5 7.5 42.05 7.5 41.5V22.5H4.5V44.5C4.5 45.05 4.95 45.5 5.5 45.5H8.5H15.5ZM30.5 45.5V42.5C30.5 40.1 28.8 38.05 26.5 37.6V45.5H30.5ZM45.5 29.5C45.5 28.95 45.05 28.5 44.5 28.5H39.5H31.5C30.95 28.5 30.5 28.05 30.5 27.5V25.5H28.5C27.95 25.5 27.5 25.05 27.5 24.5C27.5 23.95 27.95 23.5 28.5 23.5H30.5V21.5C30.5 20.95 30.95 20.5 31.5 20.5C32.05 20.5 32.5 20.95 32.5 21.5V26.5H38.5V5.5C38.5 4.95 38.05 4.5 37.5 4.5H32.5V13.5C32.5 14.05 32.05 14.5 31.5 14.5C30.95 14.5 30.5 14.05 30.5 13.5V4.5H19.5V8C19.5 8.55 19.05 9 18.5 9C17.95 9 17.5 8.55 17.5 8V4.5H14.5V10.5C14.5 12.15 13.15 13.5 11.5 13.5H9.5V20.5H17.5V17C17.5 16.45 17.95 16 18.5 16C19.05 16 19.5 16.45 19.5 17V23.5H21.5C22.05 23.5 22.5 23.95 22.5 24.5C22.5 25.05 22.05 25.5 21.5 25.5H19.5V33C19.5 33.55 19.05 34 18.5 34C17.95 34 17.5 33.55 17.5 33V22.5H9.5V40.5H16.5C17.05 40.5 17.5 40.95 17.5 41.5V45.5H24.5V36.5C24.5 35.95 24.95 35.5 25.5 35.5C29.35 35.5 32.5 38.65 32.5 42.5V45.5H44.5C45.05 45.5 45.5 45.05 45.5 44.5V29.5Z" fill="white"/>
</svg>
